<?xml version="1.0" standalone="no"?>
<!DOCTYPE svg PUBLIC "-//W3C//DTD SVG 20010904//EN"
 "http://www.w3.org/TR/2001/REC-SVG-20010904/DTD/svg10.dtd">
<svg version="1.0" xmlns="http://www.w3.org/2000/svg"
 width="612.000000pt" height="283.000000pt" viewBox="0 0 612.000000 283.000000"
 preserveAspectRatio="xMidYMid meet">

<g transform="translate(0.000000,283.000000) scale(0.100000,-0.100000)"
fill="#000000" stroke="none">
<path d="M2846 1964 c-11 -30 -6 -160 9 -218 9 -32 28 -88 44 -125 16 -36 37
-96 47 -134 16 -58 16 -72 5 -100 -36 -88 -48 -194 -27 -234 15 -30 14 -33
-11 -69 -19 -28 -29 -58 -34 -105 -4 -39 -23 -103 -44 -155 -32 -76 -36 -96
-31 -138 3 -30 1 -55 -5 -63 -17 -20 -3 -42 38 -61 31 -13 72 -16 223 -17 165
0 189 2 225 20 l40 20 -1 85 c0 78 -3 91 -37 156 -29 56 -37 81 -37 125 0 35
-7 67 -19 89 -48 86 -46 78 -28 127 16 43 16 48 -4 126 -12 45 -28 92 -36 104
-19 29 -13 58 42 198 52 133 92 314 75 345 -13 24 -30 18 -77 -32 -88 -92
-135 -223 -135 -380 0 -49 -4 -88 -9 -88 -5 0 -9 9 -9 19 0 40 -21 229 -31
281 -27 137 -147 292 -173 224z m248 -1275 c31 -37 34 -84 7 -99 -48 -25 -101
-1 -101 45 0 23 44 85 60 85 5 0 20 -14 34 -31z"/>
<path d="M527 1943 c-20 -19 3 -95 44 -146 17 -23 7 -18 -47 21 -84 62 -122
78 -130 57 -12 -30 7 -65 84 -152 67 -76 108 -111 186 -158 14 -9 14 -15 4
-47 -9 -29 -8 -60 2 -135 18 -141 3 -187 -123 -376 -74 -110 -101 -178 -95
-242 3 -39 1 -42 -16 -33 -20 11 -36 -3 -36 -33 0 -38 34 -110 60 -129 32 -23
110 -27 418 -22 131 2 162 5 162 16 0 22 -68 76 -95 76 -29 0 -30 4 -10 60 19
54 19 143 0 180 -9 18 -12 37 -7 49 7 20 10 18 45 -24 57 -67 114 -56 100 19
-4 19 -2 27 4 23 6 -4 16 0 23 8 21 25 2 67 -53 118 -47 45 -51 53 -58 109 -5
44 -16 73 -37 103 l-30 42 38 12 c49 14 84 43 100 80 16 39 7 73 -22 86 -13 6
-33 29 -46 53 -36 64 -82 95 -153 100 l-59 4 -61 97 c-72 112 -102 149 -138
173 -28 19 -44 22 -54 11z"/>
<path d="M5558 1732 c-83 -69 -98 -87 -139 -167 l-47 -89 -66 -27 c-57 -23
-105 -59 -106 -81 0 -3 -16 -16 -35 -28 -28 -18 -35 -28 -35 -54 0 -42 38 -82
94 -98 22 -6 44 -14 48 -17 3 -3 -7 -33 -24 -66 -42 -84 -64 -151 -78 -239
-12 -69 -15 -76 -35 -76 -25 0 -35 -17 -35 -62 0 -40 48 -88 88 -88 30 0 30
-1 29 -47 l-2 -48 51 -3 c38 -2 56 2 68 14 12 12 26 14 54 10 110 -20 124 -19
142 5 16 20 21 21 47 10 36 -15 80 -5 93 20 8 15 5 22 -17 36 -16 10 -31 21
-34 26 -16 22 -17 121 -4 212 18 121 10 180 -40 271 -25 46 -34 76 -36 123
l-4 62 75 3 c80 4 138 21 207 62 60 35 71 58 36 81 -52 35 -204 24 -318 -22
-17 -7 -16 -3 6 21 45 50 129 238 129 289 0 25 -4 45 -10 45 -5 0 -52 -35
-102 -78z"/>
<path d="M1740 1775 c0 -25 39 -120 74 -177 l33 -56 -41 19 c-35 15 -217 58
-266 63 -33 3 -21 -41 24 -82 57 -52 125 -86 206 -101 131 -26 160 -50 160
-138 0 -52 -23 -85 -86 -123 -32 -19 -82 -57 -112 -85 -96 -88 -139 -162 -157
-267 -4 -25 -12 -39 -26 -43 -45 -15 -56 -106 -18 -152 20 -24 67 -44 106 -45
21 -1 51 -9 68 -19 23 -13 67 -18 198 -24 l169 -6 -4 22 c-3 24 -18 35 -62 44
l-29 6 34 35 34 35 12 -47 c19 -76 41 -90 136 -86 29 2 37 6 37 21 0 23 -21
42 -50 44 -12 1 -25 9 -30 17 -11 20 23 225 46 277 27 66 30 180 5 261 -11 38
-21 78 -21 87 0 9 22 40 49 68 56 61 71 86 71 122 0 49 -16 65 -63 63 -23 0
-68 4 -100 11 -43 9 -72 10 -108 2 -28 -6 -51 -11 -53 -11 -2 0 -6 19 -10 42
-16 96 -69 168 -158 214 -55 28 -68 30 -68 9z"/>
<path d="M4162 1555 c-92 -104 -134 -261 -96 -360 5 -11 -1 -15 -21 -15 -37 0
-121 -37 -174 -77 -24 -18 -52 -33 -61 -33 -51 0 -50 -81 1 -124 17 -14 56
-33 87 -42 67 -19 88 -36 108 -84 8 -19 30 -51 48 -70 68 -72 86 -123 46 -133
-24 -6 -27 -42 -4 -51 9 -3 26 -6 38 -6 12 0 27 -5 33 -11 5 -5 32 -9 59 -7
45 3 48 5 56 36 7 24 13 32 24 28 9 -3 23 -6 31 -6 13 0 13 -3 3 -15 -28 -34
-7 -41 117 -40 95 1 124 4 143 18 14 9 42 17 63 17 21 0 47 5 58 10 52 28 77
177 26 157 -12 -4 -18 8 -26 58 -14 77 -30 117 -70 172 -83 114 -257 137 -443
58 -13 -5 -19 -1 -23 18 -14 54 26 108 143 194 79 59 121 109 159 190 19 42
22 56 13 73 -13 25 -19 25 -50 -1 -14 -11 -52 -38 -85 -61 -33 -22 -82 -61
-108 -87 l-48 -46 5 38 c3 20 9 53 12 73 8 54 -6 164 -21 164 -7 0 -27 -16
-43 -35z"/>
</g>
</svg>
